<mxfile host="app.diagrams.net" agent="Mozilla/5.0 (Windows NT 10.0; Win64; x64) AppleWebKit/537.36 (KHTML, like Gecko) Chrome/127.0.0.0 Safari/537.36 Edg/127.0.0.0" version="26.0.2">
  <diagram name="Page-1" id="ctWxJxeNUy7DphOfHnDH">
    <mxGraphModel dx="1514" dy="1990" grid="1" gridSize="10" guides="1" tooltips="1" connect="1" arrows="1" fold="1" page="1" pageScale="1" pageWidth="827" pageHeight="1169" math="0" shadow="0">
      <root>
        <mxCell id="0" />
        <mxCell id="1" parent="0" />
        <mxCell id="5DKyyrPRF5E8N-J9UGCE-25" style="edgeStyle=orthogonalEdgeStyle;rounded=0;orthogonalLoop=1;jettySize=auto;html=1;exitX=0.5;exitY=1;exitDx=0;exitDy=0;entryX=0.5;entryY=0;entryDx=0;entryDy=0;" edge="1" parent="1" source="5DKyyrPRF5E8N-J9UGCE-1" target="5DKyyrPRF5E8N-J9UGCE-7">
          <mxGeometry relative="1" as="geometry" />
        </mxCell>
        <mxCell id="5DKyyrPRF5E8N-J9UGCE-1" value="&lt;div style=&quot;line-height: 1.3; font-family: FZHei-B01S; text-align: center; vertical-align: middle; color: rgb(25, 25, 26); font-size: 18px; font-style: normal; font-weight: normal;&quot;&gt;&lt;p&gt;&lt;span&gt;GNSS接收机&lt;/span&gt;&lt;/p&gt;&lt;/div&gt;" style="rounded=0;whiteSpace=wrap;html=1;" vertex="1" parent="1">
          <mxGeometry x="200" y="80" width="120" height="40" as="geometry" />
        </mxCell>
        <mxCell id="5DKyyrPRF5E8N-J9UGCE-31" style="edgeStyle=orthogonalEdgeStyle;rounded=0;orthogonalLoop=1;jettySize=auto;html=1;exitX=0.5;exitY=1;exitDx=0;exitDy=0;" edge="1" parent="1" source="5DKyyrPRF5E8N-J9UGCE-2" target="5DKyyrPRF5E8N-J9UGCE-12">
          <mxGeometry relative="1" as="geometry" />
        </mxCell>
        <mxCell id="5DKyyrPRF5E8N-J9UGCE-2" value="&lt;div style=&quot;line-height: 1.3; font-family: FZHei-B01S; text-align: center; vertical-align: middle; color: rgb(25, 25, 26); font-size: 18px; font-style: normal; font-weight: normal;&quot;&gt;&lt;p&gt;&lt;span&gt;激光测距值，测角值&lt;/span&gt;&lt;/p&gt;&lt;/div&gt;" style="rounded=0;whiteSpace=wrap;html=1;" vertex="1" parent="1">
          <mxGeometry x="600" y="260" width="120" height="60" as="geometry" />
        </mxCell>
        <mxCell id="5DKyyrPRF5E8N-J9UGCE-32" style="edgeStyle=orthogonalEdgeStyle;rounded=0;orthogonalLoop=1;jettySize=auto;html=1;exitX=1;exitY=0.5;exitDx=0;exitDy=0;" edge="1" parent="1" source="5DKyyrPRF5E8N-J9UGCE-3" target="5DKyyrPRF5E8N-J9UGCE-2">
          <mxGeometry relative="1" as="geometry" />
        </mxCell>
        <mxCell id="5DKyyrPRF5E8N-J9UGCE-33" style="edgeStyle=orthogonalEdgeStyle;rounded=0;orthogonalLoop=1;jettySize=auto;html=1;exitX=0;exitY=0.5;exitDx=0;exitDy=0;entryX=1;entryY=0.5;entryDx=0;entryDy=0;" edge="1" parent="1" source="5DKyyrPRF5E8N-J9UGCE-3" target="5DKyyrPRF5E8N-J9UGCE-4">
          <mxGeometry relative="1" as="geometry" />
        </mxCell>
        <mxCell id="5DKyyrPRF5E8N-J9UGCE-3" value="&lt;div style=&quot;line-height: 1.3; font-family: FZHei-B01S; text-align: center; vertical-align: middle; color: rgb(25, 25, 26); font-size: 18px; font-style: normal; font-weight: normal;&quot;&gt;&lt;p&gt;&lt;span&gt;INS机械编排&lt;/span&gt;&lt;/p&gt;&lt;/div&gt;" style="rounded=0;whiteSpace=wrap;html=1;" vertex="1" parent="1">
          <mxGeometry x="400" y="260" width="120" height="60" as="geometry" />
        </mxCell>
        <mxCell id="5DKyyrPRF5E8N-J9UGCE-34" style="edgeStyle=orthogonalEdgeStyle;rounded=0;orthogonalLoop=1;jettySize=auto;html=1;exitX=0.5;exitY=1;exitDx=0;exitDy=0;entryX=0.5;entryY=0;entryDx=0;entryDy=0;" edge="1" parent="1" source="5DKyyrPRF5E8N-J9UGCE-4" target="5DKyyrPRF5E8N-J9UGCE-14">
          <mxGeometry relative="1" as="geometry" />
        </mxCell>
        <mxCell id="5DKyyrPRF5E8N-J9UGCE-4" value="&lt;div style=&quot;line-height: 130%;&quot;&gt;&lt;span style=&quot;background-color: light-dark(#ffffff, var(--ge-dark-color, #121212)); color: light-dark(rgb(0, 0, 0), rgb(255, 255, 255)); font-family: Garamond; font-size: 14px; line-height: 130%;&quot;&gt;数据预处理：&lt;/span&gt;&lt;br&gt;&lt;/div&gt;&lt;font style=&quot;font-size: 14px; line-height: 130%;&quot;&gt;&lt;span style=&quot;background-color: light-dark(#ffffff, var(--ge-dark-color, #121212)); color: light-dark(rgb(0, 0, 0), rgb(255, 255, 255)); font-family: Garamond;&quot;&gt;1.周跳探测&lt;/span&gt;&lt;br&gt;&lt;span style=&quot;background-color: light-dark(#ffffff, var(--ge-dark-color, #121212)); color: light-dark(rgb(0, 0, 0), rgb(255, 255, 255)); font-family: Garamond;&quot;&gt;2.粗差探测&lt;/span&gt;&lt;br&gt;&lt;/font&gt;&lt;span style=&quot;background-color: light-dark(#ffffff, var(--ge-dark-color, #121212)); color: light-dark(rgb(0, 0, 0), rgb(255, 255, 255)); font-family: Garamond; line-height: 130%;&quot;&gt;&lt;font style=&quot;font-size: 14px; line-height: 130%;&quot;&gt;3.INS辅助模糊度固定以及辅助周跳探测&lt;/font&gt;&lt;/span&gt;&lt;font style=&quot;forced-color-adjust: none;&quot;&gt;&lt;br&gt;&lt;/font&gt;" style="rounded=0;whiteSpace=wrap;html=1;fontSize=11;textOpacity=90;" vertex="1" parent="1">
          <mxGeometry x="160" y="240" width="200" height="100" as="geometry" />
        </mxCell>
        <mxCell id="5DKyyrPRF5E8N-J9UGCE-30" style="edgeStyle=orthogonalEdgeStyle;rounded=0;orthogonalLoop=1;jettySize=auto;html=1;exitX=0.5;exitY=1;exitDx=0;exitDy=0;" edge="1" parent="1" source="5DKyyrPRF5E8N-J9UGCE-5" target="5DKyyrPRF5E8N-J9UGCE-2">
          <mxGeometry relative="1" as="geometry" />
        </mxCell>
        <mxCell id="5DKyyrPRF5E8N-J9UGCE-5" value="&lt;div style=&quot;font-family: FZHei-B01S; text-align: center; vertical-align: middle; color: rgb(25, 25, 26); font-style: normal; font-weight: normal; line-height: 100%;&quot;&gt;&lt;p&gt;&lt;font style=&quot;line-height: 130%; font-size: 18px;&quot;&gt;特征识别标靶控制点&lt;/font&gt;&lt;/p&gt;&lt;/div&gt;" style="rounded=0;whiteSpace=wrap;html=1;" vertex="1" parent="1">
          <mxGeometry x="600" y="160" width="120" height="60" as="geometry" />
        </mxCell>
        <mxCell id="5DKyyrPRF5E8N-J9UGCE-29" style="edgeStyle=orthogonalEdgeStyle;rounded=0;orthogonalLoop=1;jettySize=auto;html=1;exitX=0.5;exitY=1;exitDx=0;exitDy=0;entryX=0.5;entryY=0;entryDx=0;entryDy=0;" edge="1" parent="1" source="5DKyyrPRF5E8N-J9UGCE-6" target="5DKyyrPRF5E8N-J9UGCE-3">
          <mxGeometry relative="1" as="geometry" />
        </mxCell>
        <mxCell id="5DKyyrPRF5E8N-J9UGCE-6" value="&lt;div style=&quot;&quot;&gt;&lt;font style=&quot;font-size: 18px;&quot;&gt;&lt;span style=&quot;color: light-dark(rgb(25, 25, 26), rgb(216, 216, 217)); font-family: FZHei-B01S; background-color: transparent;&quot;&gt;加速度&lt;/span&gt;&lt;br&gt;&lt;/font&gt;&lt;/div&gt;&lt;div style=&quot;font-family: FZHei-B01S; vertical-align: middle; color: rgb(25, 25, 26); font-style: normal; font-weight: normal; line-height: 100%;&quot;&gt;&lt;p style=&quot;&quot;&gt;&lt;span style=&quot;color: light-dark(rgb(25, 25, 26), rgb(216, 216, 217)); background-color: transparent;&quot;&gt;&lt;font style=&quot;font-size: 18px;&quot;&gt;角速度&lt;/font&gt;&lt;/span&gt;&lt;/p&gt;&lt;/div&gt;" style="rounded=0;whiteSpace=wrap;html=1;opacity=80;align=center;" vertex="1" parent="1">
          <mxGeometry x="400" y="160" width="120" height="60" as="geometry" />
        </mxCell>
        <mxCell id="5DKyyrPRF5E8N-J9UGCE-28" style="edgeStyle=orthogonalEdgeStyle;rounded=0;orthogonalLoop=1;jettySize=auto;html=1;exitX=0.5;exitY=1;exitDx=0;exitDy=0;entryX=0.5;entryY=0;entryDx=0;entryDy=0;" edge="1" parent="1" source="5DKyyrPRF5E8N-J9UGCE-7" target="5DKyyrPRF5E8N-J9UGCE-4">
          <mxGeometry relative="1" as="geometry" />
        </mxCell>
        <mxCell id="5DKyyrPRF5E8N-J9UGCE-7" value="&lt;div style=&quot;font-family: FZHei-B01S; vertical-align: middle; color: rgb(25, 25, 26); line-height: 60%;&quot;&gt;&lt;p&gt;&lt;font style=&quot;line-height: 60%; font-size: 14px;&quot;&gt;伪距观测值&lt;/font&gt;&lt;/p&gt;&lt;p&gt;&lt;font style=&quot;line-height: 60%; font-size: 14px;&quot;&gt;载波观测值&lt;/font&gt;&lt;/p&gt;&lt;p&gt;&lt;font style=&quot;line-height: 60%; font-size: 14px;&quot;&gt;多普勒观测值&lt;/font&gt;&lt;/p&gt;&lt;/div&gt;" style="rounded=0;whiteSpace=wrap;html=1;fontSize=11;" vertex="1" parent="1">
          <mxGeometry x="200" y="160" width="120" height="60" as="geometry" />
        </mxCell>
        <mxCell id="5DKyyrPRF5E8N-J9UGCE-27" style="edgeStyle=orthogonalEdgeStyle;rounded=0;orthogonalLoop=1;jettySize=auto;html=1;exitX=0.5;exitY=1;exitDx=0;exitDy=0;entryX=0.5;entryY=0;entryDx=0;entryDy=0;" edge="1" parent="1" source="5DKyyrPRF5E8N-J9UGCE-8" target="5DKyyrPRF5E8N-J9UGCE-5">
          <mxGeometry relative="1" as="geometry" />
        </mxCell>
        <mxCell id="5DKyyrPRF5E8N-J9UGCE-8" value="&lt;div style=&quot;line-height: 1.3; font-family: FZHei-B01S; vertical-align: middle; color: rgb(25, 25, 26); font-size: 18px;&quot;&gt;&lt;p style=&quot;line-height: 100%;&quot;&gt;激光扫描仪&lt;/p&gt;&lt;/div&gt;" style="rounded=0;whiteSpace=wrap;html=1;" vertex="1" parent="1">
          <mxGeometry x="600" y="80" width="120" height="40" as="geometry" />
        </mxCell>
        <mxCell id="5DKyyrPRF5E8N-J9UGCE-19" style="edgeStyle=orthogonalEdgeStyle;rounded=0;orthogonalLoop=1;jettySize=auto;html=1;exitX=0.5;exitY=1;exitDx=0;exitDy=0;entryX=0.5;entryY=0;entryDx=0;entryDy=0;" edge="1" parent="1" source="5DKyyrPRF5E8N-J9UGCE-10" target="5DKyyrPRF5E8N-J9UGCE-9">
          <mxGeometry relative="1" as="geometry">
            <Array as="points">
              <mxPoint x="450" y="110" />
              <mxPoint x="440" y="110" />
            </Array>
          </mxGeometry>
        </mxCell>
        <mxCell id="5DKyyrPRF5E8N-J9UGCE-22" style="edgeStyle=orthogonalEdgeStyle;rounded=0;orthogonalLoop=1;jettySize=auto;html=1;entryX=0.458;entryY=-0.012;entryDx=0;entryDy=0;entryPerimeter=0;" edge="1" parent="1" source="5DKyyrPRF5E8N-J9UGCE-10" target="5DKyyrPRF5E8N-J9UGCE-8">
          <mxGeometry relative="1" as="geometry">
            <mxPoint x="460" y="40" as="sourcePoint" />
            <Array as="points" />
          </mxGeometry>
        </mxCell>
        <mxCell id="5DKyyrPRF5E8N-J9UGCE-23" style="edgeStyle=orthogonalEdgeStyle;rounded=0;orthogonalLoop=1;jettySize=auto;html=1;exitX=0.5;exitY=1;exitDx=0;exitDy=0;" edge="1" parent="1" source="5DKyyrPRF5E8N-J9UGCE-10" target="5DKyyrPRF5E8N-J9UGCE-1">
          <mxGeometry relative="1" as="geometry" />
        </mxCell>
        <mxCell id="5DKyyrPRF5E8N-J9UGCE-10" value="&lt;div style=&quot;line-height: 1.3; font-family: FZHei-B01S; vertical-align: middle; color: rgb(25, 25, 26); font-style: normal; font-weight: normal;&quot;&gt;&lt;p&gt;&lt;span&gt;&lt;font style=&quot;font-size: 19px;&quot;&gt;GNSS/INS/LIDAR多源融合的铁路无缝高精度定位算法&lt;/font&gt;&lt;/span&gt;&lt;/p&gt;&lt;/div&gt;" style="rounded=0;whiteSpace=wrap;html=1;align=center;verticalAlign=middle;labelPosition=center;verticalLabelPosition=middle;" vertex="1" parent="1">
          <mxGeometry x="200" width="520" height="40" as="geometry" />
        </mxCell>
        <mxCell id="5DKyyrPRF5E8N-J9UGCE-11" value="&lt;div style=&quot;line-height: 1.3; font-family: FZHei-B01S; text-align: center; vertical-align: middle; color: rgb(25, 25, 26); font-size: 18px; font-style: normal; font-weight: normal;&quot;&gt;&lt;p&gt;&lt;span&gt;INS/GNSS/LiDAR无缝定位&lt;/span&gt;&lt;/p&gt;&lt;/div&gt;" style="rounded=0;whiteSpace=wrap;html=1;" vertex="1" parent="1">
          <mxGeometry x="280" y="500" width="240" height="60" as="geometry" />
        </mxCell>
        <mxCell id="5DKyyrPRF5E8N-J9UGCE-38" style="edgeStyle=orthogonalEdgeStyle;rounded=0;orthogonalLoop=1;jettySize=auto;html=1;exitX=0.5;exitY=1;exitDx=0;exitDy=0;entryX=0.5;entryY=0;entryDx=0;entryDy=0;" edge="1" parent="1" source="5DKyyrPRF5E8N-J9UGCE-12" target="5DKyyrPRF5E8N-J9UGCE-15">
          <mxGeometry relative="1" as="geometry" />
        </mxCell>
        <mxCell id="5DKyyrPRF5E8N-J9UGCE-12" value="&lt;div style=&quot;line-height: 1.3; font-family: FZHei-B01S; text-align: center; vertical-align: middle; color: rgb(25, 25, 26); font-size: 18px; font-style: normal; font-weight: normal;&quot;&gt;&lt;p&gt;&lt;span&gt;点云中靶点坐标&lt;/span&gt;&lt;/p&gt;&lt;/div&gt;" style="rounded=0;whiteSpace=wrap;html=1;" vertex="1" parent="1">
          <mxGeometry x="600" y="360" width="120" height="60" as="geometry" />
        </mxCell>
        <mxCell id="5DKyyrPRF5E8N-J9UGCE-36" style="edgeStyle=orthogonalEdgeStyle;rounded=0;orthogonalLoop=1;jettySize=auto;html=1;exitX=0.5;exitY=0;exitDx=0;exitDy=0;" edge="1" parent="1" source="5DKyyrPRF5E8N-J9UGCE-13" target="5DKyyrPRF5E8N-J9UGCE-3">
          <mxGeometry relative="1" as="geometry" />
        </mxCell>
        <mxCell id="5DKyyrPRF5E8N-J9UGCE-13" value="&lt;div style=&quot;line-height: 1.3; font-family: FZHei-B01S; text-align: center; vertical-align: middle; color: rgb(25, 25, 26); font-size: 18px; font-style: normal; font-weight: normal;&quot;&gt;&lt;p&gt;&lt;span&gt;惯导误差&lt;/span&gt;&lt;/p&gt;&lt;/div&gt;" style="rounded=0;whiteSpace=wrap;html=1;" vertex="1" parent="1">
          <mxGeometry x="400" y="370" width="120" height="60" as="geometry" />
        </mxCell>
        <mxCell id="5DKyyrPRF5E8N-J9UGCE-35" style="edgeStyle=orthogonalEdgeStyle;rounded=0;orthogonalLoop=1;jettySize=auto;html=1;exitX=1;exitY=0.5;exitDx=0;exitDy=0;entryX=0;entryY=0.5;entryDx=0;entryDy=0;" edge="1" parent="1" source="5DKyyrPRF5E8N-J9UGCE-14" target="5DKyyrPRF5E8N-J9UGCE-13">
          <mxGeometry relative="1" as="geometry" />
        </mxCell>
        <mxCell id="5DKyyrPRF5E8N-J9UGCE-42" style="edgeStyle=orthogonalEdgeStyle;rounded=0;orthogonalLoop=1;jettySize=auto;html=1;exitX=0.5;exitY=1;exitDx=0;exitDy=0;entryX=0;entryY=0.5;entryDx=0;entryDy=0;" edge="1" parent="1" source="5DKyyrPRF5E8N-J9UGCE-14" target="5DKyyrPRF5E8N-J9UGCE-11">
          <mxGeometry relative="1" as="geometry" />
        </mxCell>
        <mxCell id="5DKyyrPRF5E8N-J9UGCE-14" value="&lt;div style=&quot;font-family: FZHei-B01S; text-align: center; vertical-align: middle; color: rgb(25, 25, 26); font-style: normal; font-weight: normal; line-height: 100%;&quot;&gt;&lt;p&gt;&lt;span&gt;&lt;font style=&quot;font-size: 15px; line-height: 100%;&quot;&gt;INS/GNSS松组合&lt;/font&gt;&lt;/span&gt;&lt;/p&gt;&lt;p&gt;&lt;span&gt;&lt;font style=&quot;font-size: 15px; line-height: 100%;&quot;&gt;INS/GNSS紧组合&lt;/font&gt;&lt;/span&gt;&lt;/p&gt;&lt;/div&gt;" style="rounded=0;whiteSpace=wrap;html=1;" vertex="1" parent="1">
          <mxGeometry x="180" y="370" width="160" height="60" as="geometry" />
        </mxCell>
        <mxCell id="5DKyyrPRF5E8N-J9UGCE-40" style="edgeStyle=orthogonalEdgeStyle;rounded=0;orthogonalLoop=1;jettySize=auto;html=1;exitX=0;exitY=0.5;exitDx=0;exitDy=0;entryX=1;entryY=0.5;entryDx=0;entryDy=0;" edge="1" parent="1" source="5DKyyrPRF5E8N-J9UGCE-15" target="5DKyyrPRF5E8N-J9UGCE-13">
          <mxGeometry relative="1" as="geometry" />
        </mxCell>
        <mxCell id="5DKyyrPRF5E8N-J9UGCE-44" style="edgeStyle=orthogonalEdgeStyle;rounded=0;orthogonalLoop=1;jettySize=auto;html=1;exitX=0.5;exitY=1;exitDx=0;exitDy=0;entryX=1;entryY=0.5;entryDx=0;entryDy=0;" edge="1" parent="1" source="5DKyyrPRF5E8N-J9UGCE-15" target="5DKyyrPRF5E8N-J9UGCE-11">
          <mxGeometry relative="1" as="geometry" />
        </mxCell>
        <mxCell id="5DKyyrPRF5E8N-J9UGCE-15" value="&lt;div style=&quot;line-height: 1.3; font-family: FZHei-B01S; text-align: center; vertical-align: middle; color: rgb(25, 25, 26); font-size: 18px; font-style: normal; font-weight: normal;&quot;&gt;&lt;p&gt;&lt;span&gt;INS/LiDAR组合滤波&lt;/span&gt;&lt;/p&gt;&lt;/div&gt;" style="rounded=0;whiteSpace=wrap;html=1;" vertex="1" parent="1">
          <mxGeometry x="600" y="450" width="120" height="60" as="geometry" />
        </mxCell>
        <mxCell id="5DKyyrPRF5E8N-J9UGCE-46" style="edgeStyle=orthogonalEdgeStyle;rounded=0;orthogonalLoop=1;jettySize=auto;html=1;exitX=1;exitY=0.5;exitDx=0;exitDy=0;entryX=1;entryY=0.5;entryDx=0;entryDy=0;" edge="1" parent="1" source="5DKyyrPRF5E8N-J9UGCE-17" target="5DKyyrPRF5E8N-J9UGCE-15">
          <mxGeometry relative="1" as="geometry" />
        </mxCell>
        <mxCell id="5DKyyrPRF5E8N-J9UGCE-17" value="&lt;div style=&quot;line-height: 1.3; font-family: FZHei-B01S; text-align: center; vertical-align: middle; color: rgb(25, 25, 26); font-size: 18px; font-style: normal; font-weight: normal;&quot;&gt;&lt;p&gt;&lt;span&gt;CPⅢ靶点坐标&lt;/span&gt;&lt;/p&gt;&lt;/div&gt;" style="rounded=0;whiteSpace=wrap;html=1;direction=south;" vertex="1" parent="1">
          <mxGeometry x="730" y="320" width="50" height="100" as="geometry" />
        </mxCell>
        <mxCell id="5DKyyrPRF5E8N-J9UGCE-24" value="" style="edgeStyle=orthogonalEdgeStyle;rounded=0;orthogonalLoop=1;jettySize=auto;html=1;exitX=0.5;exitY=1;exitDx=0;exitDy=0;entryX=0.5;entryY=0;entryDx=0;entryDy=0;" edge="1" parent="1" source="5DKyyrPRF5E8N-J9UGCE-10" target="5DKyyrPRF5E8N-J9UGCE-9">
          <mxGeometry relative="1" as="geometry">
            <mxPoint x="440" y="40" as="sourcePoint" />
            <mxPoint x="680" y="160" as="targetPoint" />
          </mxGeometry>
        </mxCell>
        <mxCell id="5DKyyrPRF5E8N-J9UGCE-26" style="edgeStyle=orthogonalEdgeStyle;rounded=0;orthogonalLoop=1;jettySize=auto;html=1;exitX=0.5;exitY=1;exitDx=0;exitDy=0;entryX=0.5;entryY=0;entryDx=0;entryDy=0;" edge="1" parent="1" source="5DKyyrPRF5E8N-J9UGCE-9" target="5DKyyrPRF5E8N-J9UGCE-6">
          <mxGeometry relative="1" as="geometry" />
        </mxCell>
        <mxCell id="5DKyyrPRF5E8N-J9UGCE-9" value="&lt;div style=&quot;line-height: 1.3; font-family: FZHei-B01S; vertical-align: middle; color: rgb(25, 25, 26); font-size: 18px;&quot;&gt;&lt;p style=&quot;line-height: 100%;&quot;&gt;IMU&lt;/p&gt;&lt;/div&gt;" style="rounded=0;whiteSpace=wrap;html=1;" vertex="1" parent="1">
          <mxGeometry x="400" y="80" width="120" height="40" as="geometry" />
        </mxCell>
      </root>
    </mxGraphModel>
  </diagram>
</mxfile>
